<svg width="640" height="420" viewBox="0 0 640 420" xmlns="http://www.w3.org/2000/svg">
  <defs>
    <linearGradient id="noteBg" x1="0" y1="0" x2="1" y2="1">
      <stop offset="0%" stop-color="#3a2d22" />
      <stop offset="100%" stop-color="#201610" />
    </linearGradient>
    <linearGradient id="voiceLine" x1="0" y1="0" x2="1" y2="0">
      <stop offset="0%" stop-color="#f7d38a" />
      <stop offset="100%" stop-color="#f0a84d" />
    </linearGradient>
  </defs>
  <rect x="18" y="14" width="604" height="392" rx="20" fill="url(#noteBg)" stroke="#f2c275" stroke-width="4" />
  <text x="48" y="62" fill="#fff1d2" font-size="28" font-family="sans-serif">STATEMENT NOTE</text>
  <text x="48" y="94" fill="#f3cf93" font-size="16" font-family="sans-serif">REIKO / TEMP 88C / SEQUENCE CHECK</text>
  <rect x="44" y="130" width="552" height="190" rx="14" fill="#2a1f18" stroke="#cda565" />
  <path d="M64 230 L84 230 L96 194 L112 268 L132 178 L152 246 L172 214 L192 230 L212 230 L228 188 L246 272 L262 206 L278 230 L298 230 L316 198 L334 254 L350 176 L370 238 L390 230 L410 230 L430 196 L446 258 L466 208 L486 230 L506 230 L522 188 L542 264 L558 222 L576 230"
    fill="none" stroke="url(#voiceLine)" stroke-width="5" stroke-linecap="round" stroke-linejoin="round" />
  <path d="M56 344h528" stroke="#dcb276" stroke-width="4" stroke-linecap="round" />
  <path d="M56 370h438" stroke="#dcb276" stroke-width="4" stroke-linecap="round" />
  <circle cx="548" cy="356" r="30" fill="#3a2819" stroke="#f0bd6e" stroke-width="3" />
  <text x="548" y="362" fill="#ffdca4" font-size="18" text-anchor="middle" font-family="sans-serif">REC</text>
</svg>
