<svg width="800" height="600" viewBox="0 0 800 600" xmlns="http://www.w3.org/2000/svg">
  <defs>
    <linearGradient id="hubGradient" x1="0%" y1="0%" x2="100%" y2="100%">
      <stop offset="0%" stop-color="#0f172a"/>
      <stop offset="50%" stop-color="#1e40af"/>
      <stop offset="100%" stop-color="#22d3ee"/>
    </linearGradient>
    <linearGradient id="gridGlow" x1="0%" y1="0%" x2="0%" y2="100%">
      <stop offset="0%" stop-color="#e0f2fe" stop-opacity="0.8"/>
      <stop offset="100%" stop-color="#bae6fd" stop-opacity="0"/>
    </linearGradient>
  </defs>
  <rect width="800" height="600" fill="url(#hubGradient)" rx="32"/>
  <g fill="none" stroke="#38bdf8" stroke-opacity="0.35" stroke-width="1.5">
    <path d="M120 140h560M120 220h560M120 300h560M120 380h560M120 460h560"/>
    <path d="M200 80v440M320 80v440M440 80v440M560 80v440M680 80v440"/>
  </g>
  <rect x="140" y="160" width="520" height="320" fill="url(#gridGlow)" opacity="0.9" rx="28"/>
  <g fill="#f8fafc" font-family="'Pretendard', 'Noto Sans KR', sans-serif">
    <text x="160" y="220" font-size="42" font-weight="700">Innovation Hub</text>
    <text x="160" y="270" font-size="20" opacity="0.75">협업의 에너지와 끈질긴 집중력이 교차하는 전략실</text>
  </g>
  <circle cx="640" cy="200" r="48" fill="#38bdf8" opacity="0.4"/>
  <circle cx="620" cy="420" r="36" fill="#22d3ee" opacity="0.35"/>
  <circle cx="520" cy="320" r="24" fill="#e0f2fe" opacity="0.65"/>
</svg>
