<svg xmlns="http://www.w3.org/2000/svg" viewBox="0 0 1440 810">
  <defs>
    <linearGradient id="eveningSky" x1="0" y1="0" x2="0" y2="1">
      <stop offset="0%" stop-color="#0f172a" />
      <stop offset="100%" stop-color="#1e293b" />
    </linearGradient>
    <linearGradient id="boardGlow" x1="0" y1="0" x2="1" y2="1">
      <stop offset="0%" stop-color="#fde68a" stop-opacity="0.8" />
      <stop offset="100%" stop-color="#fcd34d" stop-opacity="0.2" />
    </linearGradient>
  </defs>
  <rect width="1440" height="810" fill="url(#eveningSky)" />
  <g opacity="0.6">
    <circle cx="320" cy="180" r="140" fill="#1d4ed8" />
    <circle cx="560" cy="200" r="90" fill="#1e3a8a" />
    <circle cx="820" cy="160" r="120" fill="#1d4ed8" />
  </g>
  <rect x="200" y="230" width="1040" height="420" rx="28" fill="#0f172a" opacity="0.55" />
  <rect x="230" y="260" width="980" height="360" rx="26" fill="url(#boardGlow)" />
  <g stroke="#fbbf24" stroke-width="6" stroke-linecap="round" opacity="0.7">
    <path d="M320 360l120 80 160-120 200 160 160-140" fill="none" />
    <path d="M320 360l-40 60" />
    <path d="M440 440l-40 60" />
    <path d="M600 320l-40 60" />
    <path d="M800 480l-40 60" />
    <path d="M960 340l-40 60" />
  </g>
  <path d="M300 640h840" stroke="#f8fafc" stroke-opacity="0.3" stroke-width="24" stroke-linecap="round" />
  <path d="M360 688h720" stroke="#e2e8f0" stroke-opacity="0.25" stroke-width="12" stroke-linecap="round" />
</svg>
