<svg xmlns="http://www.w3.org/2000/svg" viewBox="0 0 1440 810">
  <defs>
    <linearGradient id="wallGradient" x1="0" y1="0" x2="0" y2="1">
      <stop offset="0%" stop-color="#f1f5f9" />
      <stop offset="100%" stop-color="#dde8f5" />
    </linearGradient>
    <linearGradient id="deskGradient" x1="0" y1="0" x2="1" y2="1">
      <stop offset="0%" stop-color="#5f6c7b" />
      <stop offset="100%" stop-color="#354257" />
    </linearGradient>
    <linearGradient id="screenGlow" x1="0" y1="0" x2="1" y2="1">
      <stop offset="0%" stop-color="#9fd1ff" stop-opacity="0.8" />
      <stop offset="100%" stop-color="#cfe7ff" stop-opacity="0.2" />
    </linearGradient>
  </defs>
  <rect width="1440" height="810" fill="url(#wallGradient)" />
  <rect x="120" y="560" width="1200" height="140" rx="28" fill="#1e293b" opacity="0.1" />
  <rect x="180" y="520" width="1080" height="60" fill="url(#deskGradient)" rx="20" />
  <rect x="260" y="220" width="360" height="260" rx="22" fill="#1e293b" />
  <rect x="275" y="240" width="330" height="200" rx="16" fill="url(#screenGlow)" />
  <rect x="680" y="260" width="420" height="200" rx="26" fill="#f8fafc" opacity="0.75" />
  <path d="M720 320h340v8H720zm0 40h220v8H720zm0 40h300v8H720z" fill="#cbd5f5" />
  <rect x="1080" y="240" width="40" height="180" rx="8" fill="#cbd5f5" />
  <rect x="260" y="480" width="360" height="18" rx="9" fill="#0f172a" opacity="0.2" />
  <rect x="780" y="480" width="320" height="18" rx="9" fill="#0f172a" opacity="0.2" />
  <circle cx="1140" cy="180" r="90" fill="#fff7ed" opacity="0.7" />
  <path d="M1080 180a60 60 0 0 1 60-60 60 60 0 0 1 60 60" fill="#fbbf24" opacity="0.35" />
  <path d="M240 640h960" stroke="#cbd5f5" stroke-width="4" stroke-dasharray="16 12" opacity="0.4" />
</svg>
