<svg xmlns="http://www.w3.org/2000/svg" viewBox="0 0 64 64" role="img" aria-label="Visual novel favicon">
  <defs>
    <linearGradient id="bg" x1="12" x2="52" y1="8" y2="56" gradientUnits="userSpaceOnUse">
      <stop offset="0" stop-color="#ff9ad9" />
      <stop offset="1" stop-color="#715bff" />
    </linearGradient>
    <linearGradient id="page" x1="20" x2="44" y1="16" y2="44" gradientUnits="userSpaceOnUse">
      <stop offset="0" stop-color="#ffffff" />
      <stop offset="1" stop-color="#f3e7ff" />
    </linearGradient>
  </defs>
  <rect width="64" height="64" rx="14" fill="url(#bg)" />
  <path d="M18 18h10a6 6 0 0 1 6 6v22l-8-3-10 3V20a2 2 0 0 1 2-2Z" fill="url(#page)" />
  <path d="M46 18H36a6 6 0 0 0-6 6v22l8-3 10 3V20a2 2 0 0 0-2-2Z" fill="url(#page)" />
  <path d="M20 20v24l10-3.2c.6-.2 1.2-.2 1.8 0L42 44V20" fill="none" stroke="#c9b5ff" stroke-width="2" stroke-linejoin="round" />
  <path d="M32 24c2.4-2.7 7.4-2.2 8.2 1.7.5 2.5-1.2 4.8-3.6 6.8-1.5 1.2-3 2.3-4.6 3.4-1.6-1.1-3.1-2.2-4.6-3.4-2.4-2-4.1-4.3-3.6-6.8.8-3.9 5.8-4.4 8.2-1.7Z" fill="#ff5f9a" />
  <path d="M22 15c6.8-3 13.2-3 20 0" fill="none" stroke="#ffd6f2" stroke-width="2.5" stroke-linecap="round" />
</svg>
